HIERARCHY
ROOT Hips
{
	OFFSET -14.64140 90.27770 -84.91600
	CHANNELS 6 Xposition Yposition Zposition Zrotation Xrotation Yrotation
	JOINT Spine
	{
		OFFSET 0.00000 13.20850 -1.60436
		CHANNELS 3 Zrotation Xrotation Yrotation
		JOINT Spine1
		{
			OFFSET 0.00000 8.61716 0.00000
			CHANNELS 3 Zrotation Xrotation Yrotation
			JOINT Spine2
			{
				OFFSET 0.00000 8.61717 0.00000
				CHANNELS 3 Zrotation Xrotation Yrotation
				JOINT Spine3
				{
					OFFSET 0.00000 8.61717 0.00000
					CHANNELS 3 Zrotation Xrotation Yrotation
					JOINT Neck
					{
						OFFSET 0.00000 11.07920 1.10792
						CHANNELS 3 Zrotation Xrotation Yrotation
						JOINT Neck1
						{
							OFFSET 0.00000 7.08032 0.00000
							CHANNELS 3 Zrotation Xrotation Yrotation
							JOINT Head
							{
								OFFSET 0.00000 7.08031 0.00000
								CHANNELS 3 Zrotation Xrotation Yrotation
								End site
								{
									OFFSET 0.00000 0.00000 0.00000
								}
							}
						}
					}
					JOINT RightShoulder
					{
						OFFSET -0.01000 7.91373 5.19711
						CHANNELS 3 Zrotation Xrotation Yrotation
						JOINT RightArm
						{
							OFFSET -18.41580 0.00000 0.00000
							CHANNELS 3 Zrotation Xrotation Yrotation
							JOINT RightForeArm
							{
								OFFSET -29.11090 0.00000 0.00000
								CHANNELS 3 Zrotation Xrotation Yrotation
								JOINT RightHand
								{
									OFFSET -24.65040 0.00000 0.00000
									CHANNELS 3 Zrotation Xrotation Yrotation
									JOINT RightHandThumb1
									{
										OFFSET -5.35114 -0.85590 3.97906
										CHANNELS 3 Zrotation Xrotation Yrotation
										JOINT RightHandThumb2
										{
											OFFSET -4.52789 0.00000 0.00000
											CHANNELS 3 Zrotation Xrotation Yrotation
											JOINT RightHandThumb3
											{
												OFFSET -2.46976 0.00000 0.00000
												CHANNELS 3 Zrotation Xrotation Yrotation
												End site
												{
													OFFSET 0.00000 0.00000 0.00000
												}
											}
										}
									}
									JOINT RightHandIndex1
									{
										OFFSET -14.26970 0.00000 2.88139
										CHANNELS 3 Zrotation Xrotation Yrotation
										JOINT RightHandIndex2
										{
											OFFSET -5.48836 0.00000 0.00000
											CHANNELS 3 Zrotation Xrotation Yrotation
											JOINT RightHandIndex3
											{
												OFFSET -3.01859 0.00000 0.00000
												CHANNELS 3 Zrotation Xrotation Yrotation
												End site
												{
													OFFSET 0.00000 0.00000 0.00000
												}
											}
										}
									}
									JOINT RightHandMiddle1
									{
										OFFSET -14.26970 0.00000 -0.09147
										CHANNELS 3 Zrotation Xrotation Yrotation
										JOINT RightHandMiddle2
										{
											OFFSET -6.17441 0.00000 0.00000
											CHANNELS 3 Zrotation Xrotation Yrotation
											JOINT RightHandMiddle3
											{
												OFFSET -3.56743 0.00000 0.00000
												CHANNELS 3 Zrotation Xrotation Yrotation
												End site
												{
													OFFSET 0.00000 0.00000 0.00000
												}
											}
										}
									}
									JOINT RightHandRing1
									{
										OFFSET -12.69180 0.00000 -3.06433
										CHANNELS 3 Zrotation Xrotation Yrotation
										JOINT RightHandRing2
										{
											OFFSET -5.62556 0.00000 0.00000
											CHANNELS 3 Zrotation Xrotation Yrotation
											JOINT RightHandRing3
											{
												OFFSET -3.56744 0.00000 0.00000
												CHANNELS 3 Zrotation Xrotation Yrotation
												End site
												{
													OFFSET 0.00000 0.00000 0.00000
												}
											}
										}
									}
									JOINT RightHandPinky1
									{
										OFFSET -11.11390 0.00000 -6.03719
										CHANNELS 3 Zrotation Xrotation Yrotation
										JOINT RightHandPinky2
										{
											OFFSET -4.52789 0.00000 0.00000
											CHANNELS 3 Zrotation Xrotation Yrotation
											JOINT RightHandPinky3
											{
												OFFSET -2.46976 0.00000 0.00000
												CHANNELS 3 Zrotation Xrotation Yrotation
												End site
												{
													OFFSET 0.00000 0.00000 0.00000
												}
											}
										}
									}
								}
							}
						}
					}
					JOINT LeftShoulder
					{
						OFFSET 0.01000 7.91373 5.19711
						CHANNELS 3 Zrotation Xrotation Yrotation
						JOINT LeftArm
						{
							OFFSET 18.41580 0.00000 0.00000
							CHANNELS 3 Zrotation Xrotation Yrotation
							JOINT LeftForeArm
							{
								OFFSET 29.11090 0.00000 0.00000
								CHANNELS 3 Zrotation Xrotation Yrotation
								JOINT LeftHand
								{
									OFFSET 24.65040 0.00000 0.00000
									CHANNELS 3 Zrotation Xrotation Yrotation
									JOINT LeftHandThumb1
									{
										OFFSET 5.35114 -0.85590 3.97906
										CHANNELS 3 Zrotation Xrotation Yrotation
										JOINT LeftHandThumb2
										{
											OFFSET 4.52789 0.00000 0.00000
											CHANNELS 3 Zrotation Xrotation Yrotation
											JOINT LeftHandThumb3
											{
												OFFSET 2.46977 0.00000 0.00000
												CHANNELS 3 Zrotation Xrotation Yrotation
												End site
												{
													OFFSET 0.00000 0.00000 0.00000
												}
											}
										}
									}
									JOINT LeftHandIndex1
									{
										OFFSET 14.26970 0.00000 2.88139
										CHANNELS 3 Zrotation Xrotation Yrotation
										JOINT LeftHandIndex2
										{
											OFFSET 5.48836 0.00000 0.00000
											CHANNELS 3 Zrotation Xrotation Yrotation
											JOINT LeftHandIndex3
											{
												OFFSET 3.01859 0.00000 0.00000
												CHANNELS 3 Zrotation Xrotation Yrotation
												End site
												{
													OFFSET 0.00000 0.00000 0.00000
												}
											}
										}
									}
									JOINT LeftHandMiddle1
									{
										OFFSET 14.26970 0.00000 -0.09147
										CHANNELS 3 Zrotation Xrotation Yrotation
										JOINT LeftHandMiddle2
										{
											OFFSET 6.17440 0.00000 0.00000
											CHANNELS 3 Zrotation Xrotation Yrotation
											JOINT LeftHandMiddle3
											{
												OFFSET 3.56744 0.00000 0.00000
												CHANNELS 3 Zrotation Xrotation Yrotation
												End site
												{
													OFFSET 0.00000 0.00000 0.00000
												}
											}
										}
									}
									JOINT LeftHandRing1
									{
										OFFSET 12.69180 0.00000 -3.06433
										CHANNELS 3 Zrotation Xrotation Yrotation
										JOINT LeftHandRing2
										{
											OFFSET 5.62556 0.00000 0.00000
											CHANNELS 3 Zrotation Xrotation Yrotation
											JOINT LeftHandRing3
											{
												OFFSET 3.56744 0.00000 0.00000
												CHANNELS 3 Zrotation Xrotation Yrotation
												End site
												{
													OFFSET 0.00000 0.00000 0.00000
												}
											}
										}
									}
									JOINT LeftHandPinky1
									{
										OFFSET 11.11390 0.00000 -6.03719
										CHANNELS 3 Zrotation Xrotation Yrotation
										JOINT LeftHandPinky2
										{
											OFFSET 4.52789 0.00000 0.00000
											CHANNELS 3 Zrotation Xrotation Yrotation
											JOINT LeftHandPinky3
											{
												OFFSET 2.46976 0.00000 0.00000
												CHANNELS 3 Zrotation Xrotation Yrotation
												End site
												{
													OFFSET 0.00000 0.00000 0.00000
												}
											}
										}
									}
								}
							}
						}
					}
					JOINT pCube4
					{
						OFFSET 0.00000 10.91090 1.10792
						CHANNELS 3 Zrotation Xrotation Yrotation
						End site
						{
							OFFSET 0.00000 0.00000 0.00000
						}
					}
				}
			}
		}
	}
	JOINT RightUpLeg
	{
		OFFSET -9.98441 0.00000 0.00000
		CHANNELS 3 Zrotation Xrotation Yrotation
		JOINT RightLeg
		{
			OFFSET 0.00000 -42.11790 0.00000
			CHANNELS 3 Zrotation Xrotation Yrotation
			JOINT RightFoot
			{
				OFFSET 0.00000 -45.00020 -0.00001
				CHANNELS 3 Zrotation Xrotation Yrotation
				JOINT RightForeFoot
				{
					OFFSET 0.00000 -3.74820 0.00000
					CHANNELS 3 Zrotation Xrotation Yrotation
					JOINT RightToeBase
					{
						OFFSET 0.00000 0.06325 14.43120
						CHANNELS 3 Zrotation Xrotation Yrotation
						End site
						{
							OFFSET 0.00000 0.00000 0.00000
						}
					}
				}
			}
		}
	}
	JOINT LeftUpLeg
	{
		OFFSET 9.98441 0.00000 0.00000
		CHANNELS 3 Zrotation Xrotation Yrotation
		JOINT LeftLeg
		{
			OFFSET 0.00000 -42.11800 0.00000
			CHANNELS 3 Zrotation Xrotation Yrotation
			JOINT LeftFoot
			{
				OFFSET 0.00000 -45.00070 0.00000
				CHANNELS 3 Zrotation Xrotation Yrotation
				JOINT LeftForeFoot
				{
					OFFSET 0.00000 -3.74824 0.00000
					CHANNELS 3 Zrotation Xrotation Yrotation
					JOINT LeftToeBase
					{
						OFFSET 0.00000 0.06325 14.43110
						CHANNELS 3 Zrotation Xrotation Yrotation
						End site
						{
							OFFSET 0.00000 0.00000 0.00000
						}
					}
				}
			}
		}
	}
}
MOTION
Frames: 4
Frame Time: 0.050000
0.0309800633188472 0.002190544882186094 -0.022330751954249148 0.049002735782072475 0.007453786154803664 -0.002060199051919931 5.118656938713288 6.633535738286497 -1.9181441488250135 -1.0470534087415397 4.213560155144048 0.3748452104235171 -0.6967287456167913 -0.5639943786749524 0.9845136428038197 -0.09642341843457679 0.06683213957543115 -0.22917335288239993 -0.4210231319982113 14.060150436685145 -1.4068313899772473 -0.39044408947606524 -1.8062336382116364 -4.043786047411135 0.33357511220775504 -19.633943679882666 -0.36355896642100327 -12.643128211291847 4.019290474865897 -17.448545574253973 77.41592336347995 -6.550182282252998 15.310627783316042 10.171735310177397 -5.017647299094192 70.66476177315697 2.151462736505993 0.17914183412917548 0.129853819687466 4.556573721426592 -0.13221900952203613 -1.5657270969027106 0.04595124790613925 0.007685159096534849 -56.26652640942275 0.03313092403930876 0.03401416953707323 -56.21819091031431 -38.76212704507803 -0.034178058465005386 -0.021579510911174216 -0.034777267494011194 -0.007153430444981929 -0.037600385873553056 -0.03441710819237213 -0.009650538210743843 0.01626618328041011 -36.67215828741111 0.020897526308914647 0.025506849271119854 0.0464009803388341 -0.0026214067541539873 -0.0203628789901565 -0.019230693898094713 -0.03362371764230083 -0.00047072968291014334 -19.794935352019003 0.029643343521360638 -0.007283725358235078 0.010621061605311804 -0.010239881577475612 0.04274268394702414 0.0029016806553121004 -0.025620627176190913 0.02095231956744827 24.10022812660423 0.04197668764761878 0.016305426680117537 28.84777901388088 -0.002640572452385564 -0.015741952888256056 28.8677893176734 -0.012918098136496595 0.0316992170695601 12.153337421314998 2.638253736730477 14.930232121155163 -71.93559503214827 7.627959538836169 -20.704655334087754 -3.9175227234522385 -7.308971399068807 -62.00168790338035 -4.498091325258992 2.4122222039355523 -3.6047109554461363 -0.4680076372006277 0.034485383033914525 -8.082385870821927 -0.04026865085024119 -0.004979866331784893 44.61328096571246 -0.031072135879762094 -0.017460954793916454 44.60860569465381 12.504373110476072 -0.0031285125529297523 0.033076763607361996 0.01474378112605268 -0.015524300942277013 -0.04385820086922091 -6.526845794045511e-05 0.01666033409844478 -0.009732715348631866 11.133138968996523 0.0022077204873572308 0.030975461080852928 -0.049705437674233015 0.042526104927253186 -0.018617546701068372 -0.022833695104545308 -0.013330629180632861 -0.029051572951522983 4.794265755139722 0.021560358783774616 -0.0425716447214881 0.02124752943952857 0.02805221731601694 0.02519108483076544 0.04530447587587717 0.034242670701240645 -0.012838811231438279 -5.606879826882301 0.012746057946971517 -0.0181232599346686 -6.719547620887975 0.034368072759782035 0.003766421835254827 -6.716796904627237 0.019063152085283416 -0.038418315811526174 0.021659485002644908 -0.018542919989542737 -0.01948522799395795 8.050328410628396 3.5072070938283333 -19.245526077672306 -0.023387258686553194 10.382660436481272 0.06391108243445427 -5.62465988742653 -15.629972103780528 3.1860982925845582 0.0484507079974616 0.011212682513184538 0.005754961349976862 -0.02414634021768826 4.681952799710167 -0.0011891649793575958 12.49961865543719 -8.281176197350758 6.919356377153308 -0.014370060632536043 46.349018675134324 0.008122468250835877 -4.3002832571600065 -14.781974013970203 -3.8192818447261256 -0.03958379550857195 -0.004452612829943147 -0.020111355479797526 -0.0015384070139365462 -10.738834012357424 0.03364785131651192 
0.007773498451961874 0.03937834490260496 0.016713586700074 -0.037247280766561974 0.043403162176566056 -0.031102603286333186 5.127036747483398 6.679748056137258 -1.9008893549879118 -1.01518880230991 4.1922630651210815 0.3966671762598361 -0.6443336536677586 -0.5346018276945206 0.9674381812803341 0.0825459445548668 0.1084510009799071 -0.25898786482420966 -0.40919145935799406 14.055846807830017 -1.5354342554152702 -0.43238169305779395 -1.804000792810406 -4.369819689316149 0.31161434270390237 -19.63987330537489 -0.398839807645444 -12.474243359399685 3.8545407884400147 -17.5184698159879 76.09515040055828 -5.419802440395941 14.804195930496832 11.702144067559134 -4.9173747403972605 71.68783944321875 2.7968950868613764 0.10088555933137673 -0.07001928620485441 4.5332404126290955 -0.16521772903285906 -1.5741182503430515 -0.010653788857228674 0.01660109156864255 -56.23557070455702 0.019217462786160322 -0.029241902258893268 -56.24813777167265 -38.735190854074204 0.0360274436820835 0.00818010159537316 0.03835405126944104 0.006106816738463461 -0.044920534072580925 -0.001589492850089814 -0.006550994431420296 0.028691858340758228 -36.68083992802402 0.04170076123662512 -0.03702097990502097 -0.019621521354866 0.03708874863855974 -0.0270168491361337 -0.01585800948569553 0.0006386010114547453 -0.020206314026443253 -19.720801692685573 0.04114551188871116 -0.01596993938536031 0.007767290606746004 -0.036975116809834556 -0.04956500046370043 0.009222029571182181 -0.02902654741761792 -0.009386521426523232 24.09747871185818 0.004137253424234533 -0.033449807901485495 28.86780338414799 -0.0011563814592966154 -0.0038762871151338924 28.8579661166717 -0.0034994475731777975 -0.01676795361505405 11.882562485295567 2.570751015120767 14.928269309497848 -71.08086449085731 7.853531976185462 -20.16910831290657 -5.134111938010368 -7.061097750083601 -63.091640672556814 -5.1767533473098775 2.2059977362830305 -3.3984600562839136 -0.45586421458614923 0.09467433511478725 -8.113398158455675 -0.02502660226755177 0.03174638206350804 44.57675917036416 0.016506209757030363 -0.04091839743136859 44.59393569967415 12.486199096143773 -0.038719494705143916 -0.04217872764217007 0.015052587592002464 -0.042061144539144404 0.03763642995017669 0.03376339994112617 0.009493507593801015 -0.02902424095334018 11.13814396577375 -0.011050530911951262 -0.002027800178094847 -0.017049656614397935 -0.036039669049324825 -0.03661268631067913 0.030703271255197756 -0.04907784390198973 0.010271547461153644 4.731724793812634 0.011222815122964134 -0.014325756626037469 0.005836763047241368 -0.005586819172998081 -0.02540206651366135 -0.011572909780707356 -0.02308856245915017 0.02883432115189978 -5.596555704552249 -0.005071438445634767 0.005315542389258584 -6.683088893939474 -0.020934362891668844 0.022780807155090132 -6.743612204438083 0.016851499273688782 -0.005392733132662242 -0.0247125937653484 0.004021108317947476 0.040147003884668866 7.999419494223459 3.458064391273939 -19.22215272138197 0.046739626920432646 10.379743816556383 -0.03528686804302754 -5.605813124414471 -15.664893858152341 3.17493415988902 -0.01472521248797361 0.024773446220210396 -0.04261038125629527 0.02440198023100746 4.682720137695799 0.03567612910407955 12.491721977956027 -8.224325481871789 6.926057184203772 -0.0034104415330740126 46.424940272159496 -0.04148495482573335 -4.342127345089871 -14.753452848346239 -3.8643180637501064 -0.015441488764574981 0.015007462300903794 -0.011514470103228602 0.03339224587899542 -10.787011936202395 0.04580894891659575 
-0.036065979472096346 0.011734178716592714 -0.003052341034208553 -0.004555414915374363 -0.00989304066360891 0.0371586573259459 5.075350376857931 6.671826191650394 -1.9041595155113482 -1.041207874648473 4.242095584757728 0.464083251972475 -0.6266272320204389 -0.515215278419287 1.0116638253606094 0.18396310000566637 0.11623787481740096 -0.23288043278989118 -0.31769064558556614 14.0488200756129 -1.7909674100764668 -0.46417035637940973 -1.864876089388544 -5.119762465770625 0.3665062303747174 -19.664481747401993 -0.4109442495552394 -12.234965276300343 3.763164320125003 -17.642285042997525 74.86927357912704 -4.079341788200951 14.751067907429185 12.409089145129379 -5.301651487993686 72.1250299787668 3.2860069250340405 0.06694192151218503 -0.2438001031588998 4.521910229917815 -0.11638562429244954 -1.6430344718330485 0.04927826763890215 0.0015616105070644282 -56.206714723695825 0.046234521453458764 0.002748462785991075 -56.21065777202429 -38.75512070343624 -0.002661369198567134 0.03705085986413796 -0.04550907041830949 -0.041766701667661624 -0.02485784233350569 0.0304165287793126 -0.04410806911990264 -0.034494400561222126 -36.7217716954527 -0.0020045681443447193 -0.04451927256756448 0.004891085396928104 0.026825234967422326 -0.010443866617799355 -0.0004149866257983775 -0.019527067696280213 -0.030780532715307826 -19.77432790216264 -0.012604297384498243 0.03637134876826756 -0.04278807717764227 -0.00046148407570319845 -0.017646736779233816 -0.010291427737556227 0.008935257134901566 -0.029478462971095045 24.059098975311073 -0.04065889767328633 0.04619299713333694 28.856705569052934 0.040909717110676085 -0.011425896614991849 28.86960937069489 -0.019792725341541004 0.006629601758677831 11.605047940057982 2.516500035286721 15.011861745216574 -70.49864744864684 7.995726774971541 -19.622928905958723 -6.143248028150371 -7.600173182607196 -63.55393074672879 -5.8242455772349775 1.9455961350363231 -3.115196711442197 -0.4331236732033729 0.035879363399334 -8.129418164769673 -0.03453324324624359 0.0071127286903765645 44.56720757002158 0.001337575774205849 -0.014910902079848156 44.55778091297822 12.491391960114377 0.029083173700428254 -0.007871850741245837 0.019858281526134162 -0.04565163786748089 0.025749236280383635 -0.004843939614634084 0.04986132723876658 0.03790371997373993 11.090592716773688 -0.04109545849814551 -0.021642223177889042 -0.0025006188201823066 -0.025915934620481054 0.04144409843433271 0.04158318851815721 0.020155401077150328 -0.0004248831119730918 4.765179104971439 0.008580933247568697 -0.0036930827100976425 0.03207105400579355 0.025443910407479616 0.018458119355648835 -0.0034958172266033 -0.02695702993166907 0.032087218328065395 -5.613079531997041 -0.04552575669127616 -0.04433805083326514 -6.734535839364662 -0.04761293133157554 -0.007730149799579265 -6.741146747217356 0.029065509906271138 -0.015107708047888843 0.01599701697586999 0.010537900309742974 0.028753363400515774 8.026171020772283 3.522835963945084 -19.229716607697966 -0.01126220147171785 10.442315453171139 0.036699977078949175 -5.613158753632262 -15.68663237600472 3.226869517327315 0.010081652596753391 -0.025355724479334263 0.03243562489712774 -0.04073981984291568 4.652557347962225 -0.03611084794146993 12.422536985613013 -8.199359682206383 6.864623352006966 0.013575648992406283 46.39010959344088 0.04856479439128793 -4.369007328156536 -14.743702310157184 -3.788561824671215 -0.015453610669621585 -0.044703574931253855 0.020042689966531513 -0.014778898001498736 -10.741447841553233 -0.027790613455516353 
-0.018672327908739916 0.04625449702180741 -0.007300898288897427 -0.006204029869027783 0.013794661257155054 -0.04407858670779878 5.139296771236271 6.740478535111359 -1.874943339525167 -1.0658606742939536 4.2543622371737575 0.4139694397289845 -0.6226028452364596 -0.4178793851635875 1.136054933876761 0.3435931289778832 0.14808020297144436 -0.2427785639516955 -0.23687122727428955 14.038436623053759 -2.192543191367539 -0.4223464340633571 -1.9076584308317124 -6.191338428528298 0.44219613555083837 -19.628784818569155 -0.4825215024804749 -12.086957413729523 3.7137670019975704 -17.721475489255997 73.96877072308091 -3.383404610452884 14.437515290994206 12.56090846557736 -6.143786200510153 72.175741567858 3.975568793100768 0.017726538591283363 -0.5601662934215795 4.494731113716297 -0.1447297503617069 -1.5435160904571497 0.04475711630191034 -0.008398166895941358 -56.21793027519132 0.013466407544909478 -0.04893787503168669 -56.21134680058353 -38.75974329099352 0.006059033306218942 0.003455716389447766 0.003586332562022053 -0.006411133957460009 -0.01069582761984627 -0.017027304767428347 0.021707146099236897 0.0221197102343454 -36.690149791854424 -0.024761645686973605 -0.005907298638665357 -0.04689568988009876 -0.00574550154684416 -0.037286412936643275 -0.04645507521543358 0.006487446758870522 -0.02963814755490719 -19.8062500235043 0.0011341624793763162 -0.011204042043401127 -0.03388665727494214 0.003237382903654945 -0.03606139851554314 -0.00875133257193395 0.01896024673052666 -0.04611173174916739 24.05818286478209 -0.030142689926306396 0.022034188305950015 28.868284323552164 -2.1301274764791362e-05 -0.02841025420452067 28.901819728067437 0.01531724372838544 0.020676885474342287 11.200474765014649 2.392636319835325 15.186023385739198 -70.22385407718687 7.713450787518732 -18.483708877941066 -7.38040089571931 -8.976037567304497 -63.33902203588618 -6.636802058724091 1.4255696182776307 -2.701083518460159 -0.5040379708857864 0.0528059523629165 -8.10098296117065 -0.03775044134932167 -0.015817938275130672 44.53971677403149 0.04206418968544889 0.018678059139103885 44.53061527055428 12.454613827382088 0.031283904015252245 0.045428333890594905 0.03172163280006952 -0.04257846652157176 0.007623836931361433 0.0070869007723819814 -0.021057472522064368 -0.03882801169008664 11.136288904702274 -0.0019589185807775897 0.042456184844438784 0.028389851387371656 0.021029848420704825 0.019841983906973754 -0.013723425381746139 0.02492005006768716 -0.011402775630994759 4.739838376199839 0.04143407707964243 0.04699995198520358 -0.010669327370719874 -0.003527399176597015 0.0299886898377122 0.021319431519698673 0.013993208200084935 0.007334738441380724 -5.608772882960768 -0.01620162567243172 0.03253370325288151 -6.728133038063514 0.03172060323942046 0.019883352959047678 -6.67468319353084 -0.02943714706807899 -0.011583292975992527 -0.005435719679516904 -0.014636005328227144 -0.009817326852974215 8.037988161368991 3.495824860903644 -19.185210570175332 0.01228953369305079 10.389297179391694 -0.004543658829882363 -5.637750719837741 -15.683368698807557 3.185475272904393 -0.0159645578681904 -0.0011153062612800876 -0.0015436066589308874 -0.022222711803897843 4.68773719900373 -0.010007830270034136 12.464282153875692 -8.245607218774023 6.912473675365411 0.02899779802651417 46.420313915878964 0.019809384768721013 -4.325710104502218 -14.718434284145063 -3.7924401417292595 -0.012819913728036963 -0.002710992090204389 0.00011210176168153584 0.020042595914206745 -10.70808800994693 0.04119073842144505 
